<svg xmlns="http://www.w3.org/2000/svg" width="3729.674" height="1080" viewBox="0 0 3729.674 1080">
  <g id="logo-noiza_blu" transform="translate(-79.926 -26.523)">
    <path id="Tracciato_11" data-name="Tracciato 11" d="M781.2,1037.842,320.9,421.712v616.13H79.926V27.8H310.8l460.264,616.13V27.8h241.692V1037.842Z" transform="translate(0 49.929)" fill="#2563eb"/>
    <path id="Tracciato_12" data-name="Tracciato 12" d="M874.52,407.854c0,214.285-163.078,373-384.575,373-221.457,0-383.774-158.711-383.774-373,0-214.245,162.317-373,383.774-373C711.442,34.859,874.52,193.609,874.52,407.854Zm-537.476,0c0,95.242,64.911,162.317,152.9,162.317,88.751,0,153.7-67.074,153.7-162.317,0-95.2-64.951-162.316-153.7-162.316C401.954,245.538,337.044,312.652,337.044,407.854Z" transform="translate(1025.307 325.673)" fill="#2563eb"/>
    <path id="Tracciato_13" data-name="Tracciato 13" d="M397.248,162.154c0,75.008-59.141,134.189-134.91,134.189-76.489,0-134.91-59.181-134.91-134.189,0-76.45,58.421-135.631,134.91-135.631C338.107,26.523,397.248,85.7,397.248,162.154Zm-246.74,925.617V380.046H376.333v707.726Z" transform="translate(1855.82 0)" fill="#2563eb"/>
    <path id="Tracciato_14" data-name="Tracciato 14" d="M455.528,543.212H775.153v199.86H136.625v-161.6L456.25,235.167H148.926V35.346H767.9V201.99Z" transform="translate(2215.131 344.699)" fill="#2563eb"/>
    <path id="Tracciato_15" data-name="Tracciato 15" d="M686.691,762.1v-76.49c-43.272,55.575-107.5,95.242-203.426,95.242-188.321,0-329-163.759-329-373.717,0-207.794,139.957-372.274,329.721-372.274,95.2,0,160.153,40.429,202.706,95.964V54.373H905.3V762.1ZM386.54,407.854c0,92.358,60.624,162.317,150.818,162.317,88.71,0,151.5-68.517,151.5-162.317,0-93.76-62.787-162.316-151.5-162.316C447.164,245.538,386.54,315.5,386.54,407.854Z" transform="translate(2904.295 325.673)" fill="#2563eb"/>
  </g>
</svg>
